<svg width="81" height="86" viewBox="0 0 81 86" fill="none" xmlns="http://www.w3.org/2000/svg"><circle cx="40.5" cy="40.5" r="40.5" fill="#FFCC00"/><path d="M19.19 58.16C20.5767 56.1667 22.0933 53.87 23.74 51.27C25.3867 48.5833 26.73 45.5067 27.77 42.04C25.2567 41.6067 23.22 40.6967 21.66 39.31C20.1 37.9233 19.32 35.9733 19.32 33.46C19.32 30.5133 20.1867 28.1733 21.92 26.44C23.6533 24.7067 25.9067 23.84 28.68 23.84C31.4533 23.84 33.6633 24.8367 35.31 26.83C36.9567 28.7367 37.78 30.9467 37.78 33.46C37.78 35.8 37.3033 38.27 36.35 40.87C35.3967 43.47 34.2267 46.0267 32.84 48.54C31.4533 51.0533 29.8933 53.4367 28.16 55.69C26.5133 57.9433 24.9967 59.9367 23.61 61.67L19.19 58.16ZM45.32 58.16C46.7067 56.1667 48.2233 53.87 49.87 51.27C51.5167 48.5833 52.86 45.5067 53.9 42.04C51.3867 41.6067 49.35 40.6967 47.79 39.31C46.23 37.9233 45.45 35.9733 45.45 33.46C45.45 30.5133 46.3167 28.1733 48.05 26.44C49.7833 24.7067 52.0367 23.84 54.81 23.84C57.5833 23.84 59.7933 24.8367 61.44 26.83C63.0867 28.7367 63.91 30.9467 63.91 33.46C63.91 35.8 63.4333 38.27 62.48 40.87C61.5267 43.47 60.3567 46.0267 58.97 48.54C57.5833 51.0533 56.0233 53.4367 54.29 55.69C52.6433 57.9433 51.1267 59.9367 49.74 61.67L45.32 58.16Z" fill="#1B4584"/></svg>