<svg width="24" height="24" viewBox="0 0 24 24" fill="none" xmlns="http://www.w3.org/2000/svg"><path d="M11.4779 23.4049C8.09113 23.4049 4.70435 23.406 1.31757 23.4037C0.157702 23.4026 0.00610743 23.1952 0.0249098 22.0632C0.0566388 20.1859 0.0942435 18.3075 0.00258199 16.4302C-0.0068192 16.2273 0.00845773 16.0142 0.0648648 15.8203C0.164752 15.4775 0.409183 15.2588 0.800508 15.3129C1.15658 15.3625 1.34813 15.6083 1.35635 15.9443C1.37398 16.7144 1.37045 17.4844 1.37163 18.2545C1.37398 19.3256 1.38456 20.3956 1.36693 21.4667C1.35988 21.9008 1.53027 22.0665 1.98623 22.0654C8.34848 22.0575 14.7119 22.0564 21.0742 22.0654C21.5466 22.0665 21.677 21.8794 21.6735 21.4554C21.6582 19.727 21.6653 17.9997 21.6711 16.2713C21.6723 16.0672 21.6782 15.853 21.7416 15.6613C21.8286 15.3986 22.0742 15.296 22.3468 15.3039C22.6547 15.3129 22.8686 15.4865 22.9462 15.7616C23.0014 15.9567 22.9979 16.1698 22.9991 16.375C23.0026 18.3289 23.0026 20.2817 23.0002 22.2357C22.9991 23.238 22.8251 23.4026 21.7581 23.4026C18.3302 23.406 14.9046 23.4049 11.4779 23.4049Z" fill="#FFCC00"/><path d="M12.188 16.7371C12.5264 16.6728 12.6381 16.4811 12.7861 16.3402C14.1469 15.0425 15.5019 13.7391 16.8592 12.438C16.9697 12.332 17.0813 12.226 17.1929 12.1212C17.5079 11.8246 17.8569 11.6781 18.2153 12.0276C18.5632 12.3658 18.4503 12.7108 18.1342 13.0164C17.3339 13.7887 16.5301 14.5588 15.7275 15.33C14.5794 16.4338 13.4336 17.5387 12.2832 18.6403C11.6498 19.2469 11.3924 19.248 10.7719 18.6538C8.87406 16.8352 6.97737 15.0154 5.08185 13.1945C4.97139 13.0885 4.85623 12.9837 4.76221 12.8653C4.52718 12.5688 4.52718 12.2677 4.81274 12.0073C5.10536 11.7389 5.41325 11.7683 5.69411 12.0355C6.68123 12.9735 7.66718 13.9139 8.65078 14.8564C9.23248 15.4134 9.8083 15.9772 10.3935 16.5319C10.4946 16.6277 10.5815 16.8194 10.7684 16.7247C10.9047 16.6548 10.8518 16.4868 10.8518 16.3605C10.8565 15.4405 10.8542 14.5193 10.8542 13.5993C10.8542 9.42872 10.8542 5.25929 10.8542 1.08872C10.8542 0.313012 11.0645 -0.0173409 11.544 0.000698899C11.987 0.0164837 12.1856 0.345709 12.1856 1.08759C12.1868 6.06544 12.1868 11.0433 12.188 16.0211C12.188 16.241 12.188 16.4642 12.188 16.7371Z" fill="#FFCC00"/></svg>