<svg xmlns="http://www.w3.org/2000/svg" width="29" height="28" viewBox="0 0 29 28" fill="none"><g clip-path="url(#clip0_1096_706)"><path d="M28.9992 13.647C28.9719 16.977 27.865 19.9363 25.6139 22.4772C23.4475 24.9224 20.6977 26.4426 17.411 27.0617C16.6707 27.201 15.9212 27.2703 15.1653 27.2909C12.6247 27.3601 10.2386 26.813 7.999 25.6699C7.90013 25.6195 7.81488 25.6189 7.71378 25.6502C5.66526 26.2811 3.61611 26.9099 1.56695 27.5389C1.1049 27.6807 0.642839 27.8222 0.180147 27.9622C0.127223 27.9783 0.0638404 28.0259 0.0188388 27.9822C-0.0261627 27.9385 0.0235925 27.8775 0.0410227 27.8271C0.848832 25.5233 1.65632 23.2192 2.46984 20.9172C2.52498 20.7612 2.51991 20.6419 2.42991 20.4952C1.50611 18.9866 0.920771 17.362 0.653614 15.6329C0.567097 15.0731 0.526849 14.5096 0.511637 13.943C0.468537 12.3348 0.722067 10.7712 1.26145 9.25078C1.9089 7.42609 2.9189 5.80573 4.28606 4.39061C5.947 2.67097 7.93721 1.43771 10.2545 0.692657C11.3944 0.326201 12.566 0.109425 13.7674 0.0326118C16.3132 -0.129819 18.7341 0.318611 21.0263 1.38883C22.2962 1.98178 23.4437 2.74809 24.4772 3.67258C25.7166 4.78105 26.719 6.05985 27.4821 7.50867C28.2351 8.93836 28.7108 10.4503 28.9032 12.0431C28.9672 12.5753 29.0062 13.1087 28.9992 13.647ZM15.1359 24.9804C15.7317 24.992 16.6976 24.8742 17.6461 24.6398C20.1795 24.0131 22.2905 22.7362 23.9318 20.7846C26.0833 18.2261 26.9041 15.2959 26.4645 12.0455C26.2741 10.6374 25.7901 9.31575 25.0555 8.08097C23.9134 6.16126 22.3266 4.67418 20.2914 3.63523C18.2755 2.606 16.1218 2.19157 13.8445 2.34945C12.9191 2.41351 12.0159 2.58141 11.1349 2.85465C9.52082 3.355 8.08489 4.15197 6.82516 5.24193C5.67509 6.23685 4.7627 7.40271 4.08989 8.73768C3.45036 10.0065 3.06944 11.3448 2.96295 12.7526C2.89323 13.6731 2.91859 14.5903 3.07831 15.5015C3.37526 17.1926 4.03412 18.7434 5.06693 20.1452C5.15345 20.2627 5.16137 20.3619 5.11447 20.4937C4.66636 21.7567 4.22395 23.0212 3.78217 24.2864C3.76347 24.3401 3.70358 24.4048 3.75714 24.4534C3.80024 24.4928 3.86584 24.4437 3.91908 24.4273C5.30589 24.004 6.69269 23.5808 8.07823 23.153C8.19676 23.1166 8.28549 23.1336 8.38722 23.1955C10.3267 24.3817 12.4478 24.9768 15.1359 24.9804Z" fill="white"/><path d="M18.5508 20.4943C18.1921 20.4994 17.8495 20.4138 17.5129 20.3109C16.3353 19.9508 15.1824 19.5279 14.1011 18.9495C12.9386 18.328 11.9508 17.4955 11.0524 16.5595C10.0579 15.5233 9.23615 14.3684 8.50028 13.156C8.06231 12.4344 7.74476 11.6608 7.65507 10.8237C7.53084 9.66455 7.82811 8.61922 8.64859 7.7339C8.71863 7.6583 8.79279 7.58635 8.86156 7.50984C9.27766 7.04774 9.79994 6.87954 10.423 6.98975C10.5485 7.01192 10.6749 7.01708 10.8014 7.01161C11.0489 7.00099 11.2251 7.10816 11.3531 7.30308C11.4837 7.50194 11.5534 7.72601 11.6387 7.94309C11.9464 8.72822 12.2478 9.51547 12.558 10.2997C12.6445 10.5183 12.6293 10.7153 12.5216 10.9257C12.3317 11.2964 12.0345 11.5827 11.7493 11.88C11.6707 11.9616 11.5851 12.0369 11.504 12.1165C11.2992 12.3175 11.2698 12.482 11.4079 12.7328C11.8161 13.4736 12.3134 14.1567 12.8959 14.781C13.8437 15.7965 14.9979 16.5364 16.2881 17.0917C16.5777 17.2165 16.7495 17.1855 16.9688 16.9606C17.3792 16.5395 17.7861 16.1156 18.1547 15.6593C18.3581 15.4076 18.5347 15.3527 18.8459 15.4595C19.2997 15.6156 19.711 15.856 20.137 16.0673C20.652 16.323 21.1587 16.5941 21.6712 16.8546C22.1551 17.1005 22.2051 17.1734 22.1494 17.6895C22.1053 18.0988 21.9976 18.495 21.8226 18.8715C21.6769 19.1857 21.4221 19.4146 21.1444 19.6193C20.6494 19.9836 20.1078 20.2681 19.4895 20.3771C19.1805 20.4314 18.8703 20.5046 18.5508 20.4943Z" fill="white"/></g><defs><clipPath id="clip0_1096_706"><rect width="29" height="28" fill="white"/></clipPath></defs></svg>