<svg xmlns="http://www.w3.org/2000/svg" width="36" height="23" viewBox="0 0 36 23" fill="none"><g clip-path="url(#clip0_1096_711)"><path d="M34.5736 22.8458C34.1225 22.906 33.7655 22.9944 33.4077 22.9944C23.1386 23.0016 12.8687 23.0016 2.59956 22.9944C2.24176 22.9944 1.88395 22.9068 1.42871 22.8474C5.06163 18.74 8.61758 14.7201 12.1989 10.6714C13.1511 11.4418 14.087 12.1905 15.0139 12.9512C16.9118 14.5081 19.075 14.5113 20.9836 12.956C21.9129 12.1985 22.8479 11.4466 23.8051 10.673C27.3839 14.7169 30.9407 18.7384 34.5736 22.8458Z" fill="white"/><path d="M1.41508 0.165498C1.84985 0.110068 2.28544 0.00724261 2.72021 0.00724261C12.9091 -0.00239729 23.0979 1.26833e-05 33.2876 0.00161933C33.5054 0.00161933 33.7257 0.00563596 33.9394 0.0409823C34.1604 0.0771319 34.3741 0.153448 34.691 0.239404C34.2775 0.5768 33.9386 0.853947 33.5979 1.13029C29.0832 4.78783 24.5717 8.44939 20.0521 12.1021C18.7494 13.1553 17.2232 13.1488 15.9148 12.0909C11.1553 8.24052 6.40226 4.38376 1.6468 0.528601C1.5641 0.461121 1.48714 0.386412 1.40771 0.314916C1.41017 0.26511 1.41263 0.215304 1.41508 0.165498Z" fill="white"/><path d="M0.439525 22.1059C0.277407 21.6248 0.133302 21.248 0.0284986 20.86C-0.0189905 20.6841 0.00721035 20.4881 0.00721035 20.3009C0.00639157 14.4382 0.00802912 8.57554 0.00393524 2.71287C0.00393524 2.15858 0.0579745 1.62678 0.430518 1.11426C4.03314 4.03354 7.61693 6.93756 11.2449 9.87693C7.66605 13.9265 4.09946 17.9632 0.439525 22.1059Z" fill="white"/><path d="M35.6675 1.04834C35.7912 1.50463 35.8976 1.85648 35.9778 2.21396C36.0122 2.3674 35.995 2.53288 35.995 2.69355C35.9958 8.56987 35.9934 14.447 35.9991 20.3233C35.9999 20.925 35.9115 21.4881 35.4931 22.0248C31.9167 17.9776 28.3558 13.9473 24.7598 9.87929C28.3681 6.9576 31.9617 4.04876 35.6675 1.04834Z" fill="white"/></g><defs><clipPath id="clip0_1096_711"><rect width="36" height="23" fill="white"/></clipPath></defs></svg>