<svg xmlns="http://www.w3.org/2000/svg" width="25" height="26" viewBox="0 0 25 26" fill="none"><path d="M0.00158963 8.09508C-0.0230728 6.89905 0.239285 5.73202 0.785261 4.6302C1.33847 3.51388 2.1434 2.58194 3.17539 1.82351C3.53257 1.56104 3.85744 1.25871 4.21419 0.995434C4.95194 0.451165 5.73391 0.383534 6.53119 0.95719C7.16731 1.41531 7.61804 2.02721 8.0441 2.654C8.43062 3.22283 8.83458 3.7832 9.16284 4.38503C9.47878 4.96432 9.75432 5.56012 9.78791 6.22596C9.8249 6.9695 9.53151 7.58503 8.96554 8.09266C8.38428 8.61398 7.75198 9.07613 7.12266 9.5427C6.501 10.0036 6.34409 10.6381 6.4606 11.3458C6.57754 12.0543 6.93089 12.6751 7.30848 13.2829C7.82002 14.1066 8.44636 14.8521 9.10629 15.5695C9.73306 16.2502 10.3764 16.9169 11.1044 17.5091C11.6555 17.9571 12.2214 18.3754 12.8754 18.6745C13.3389 18.8866 13.8283 19.0243 14.3522 18.9502C14.7697 18.8911 15.1346 18.7131 15.4263 18.4245C15.9557 17.9016 16.5127 17.4076 17.1122 16.9571C18.0052 16.2861 18.9998 16.2623 20.0024 16.718C20.9604 17.1536 21.7326 17.8279 22.5282 18.4724C23.0937 18.9301 23.6457 19.4007 24.0705 19.9856C24.4017 20.4414 24.6045 20.9333 24.4629 21.4993C24.3549 21.93 24.0602 22.2481 23.7256 22.5331C23.2102 22.9723 22.6983 23.4163 22.1604 23.8301C21.372 24.4368 20.4731 24.8511 19.5024 25.1365C18.7706 25.3518 18.0175 25.4468 17.2628 25.4561C16.4655 25.4658 15.6708 25.3772 14.8875 25.1912C13.9542 24.9694 13.0676 24.6449 12.2133 24.2347C11.4926 23.8885 10.8135 23.4775 10.1527 23.0359C9.01529 22.2758 7.98032 21.4031 6.99978 20.4727C6.265 19.7755 5.57105 19.0408 4.90262 18.2848C4.01519 17.2812 3.1907 16.2345 2.46018 15.1235C1.95885 14.3606 1.50983 13.5708 1.13011 12.7447C0.746991 11.9122 0.43701 11.0608 0.235458 10.1727C0.0811048 9.496 -0.00904074 8.81325 0.00158963 8.09508Z" fill="white"/></svg>